# xmcd
#
# Track frame offsets:
#	900
#	23696
#	50813
#	75783
#	94510
#	112198
#	139244
#	162110
#	184974
#	198481
#	224437
#	246758
#	273226
#	303328
#	324086
#
# Disc length: 4575 seconds
#
# Revision: 1
# Processed by: cddbd v1.5.1PL0 Copyright (c) Steve Scherf et al.
# Submitted via: EasyCDDAExtractor 8.0.2.1
#
DISCID=ca11d30f
DTITLE=Various Artist - World Tour Washington
DYEAR=2003
DGENRE=Prog.Trance
TTITLE0=Altitude - Marrakech
TTITLE1=Three Drives - Air Traffic
TTITLE2=Sonorous -  Protonic
TTITLE3=P.O.S. - Amnesiac
TTITLE4=Sun Decade - Im Am Alone (Micro De Govia Mix)
TTITLE5=Corderoy - Sweetest Dreams (Ferry Corsten Mix)
TTITLE6=Fire and Ice Ft. Edvika - Close To Me (Dj Fire Sunset Mix)
TTITLE7=Sapphirecut - Free Your Mind (Sapphirecut's Epic Mix)
TTITLE8=QED - Hardly A Day (Filterhedz Remix)
TTITLE9=Signum - 3rd Dimension
TTITLE10=Ronlad Van Gelderen - Proceed
TTITLE11=System F - Spaceman
TTITLE12=Push Vs. Globe  - Tranceformation
TTITLE13=G.T.R - Mistral
TTITLE14=Matti Laamanen - Flakes
EXTD=Trance
EXTT0=
EXTT1=
EXTT2=
EXTT3=
EXTT4=
EXTT5=
EXTT6=
EXTT7=
EXTT8=
EXTT9=
EXTT10=
EXTT11=
EXTT12=
EXTT13=
EXTT14=
PLAYORDER=
